<?xml version="1.0" encoding="utf-8"?>
<!-- Generator: Adobe Illustrator 16.2.1, SVG Export Plug-In . SVG Version: 6.00 Build 0)  -->
<!DOCTYPE svg PUBLIC "-//W3C//DTD SVG 1.1//EN" "http://www.w3.org/Graphics/SVG/1.1/DTD/svg11.dtd">
<svg version="1.1" id="Layer_1" xmlns="http://www.w3.org/2000/svg" xmlns:xlink="http://www.w3.org/1999/xlink" x="0px" y="0px"
	 width="62px" height="62px" viewBox="0 0 62 62" enable-background="new 0 0 62 62" xml:space="preserve">
<path d="M31,0C13.879,0,0,13.88,0,31.001S13.879,62,31,62c17.12,0,31-13.878,31-30.999S48.12,0,31,0z M23.803,31.252
	c1.506,0,2.691,0.37,3.554,1.111c0.863,0.741,1.295,1.829,1.295,3.263c0,1.021-0.383,1.976-1.148,2.862s-1.817,1.33-3.154,1.33
	c-2.091,0-3.585-0.686-4.484-2.057c-0.898-1.37-1.349-3.172-1.349-5.404c0-1.576,0.341-3.014,1.021-4.311
	c0.681-1.298,1.508-2.457,2.479-3.477c0.997-1.043,2.054-1.928,3.172-2.656c1.118-0.728,2.054-1.322,2.808-1.783l1.312,2.18
	c-1.143,0.654-2.066,1.219-2.771,1.69c-0.705,0.474-1.423,1.097-2.151,1.871c-0.681,0.728-1.204,1.491-1.567,2.29
	c-0.365,0.8-0.62,1.83-0.766,3.09H23.803z M37.292,31.252c1.507,0,2.691,0.37,3.555,1.111c0.862,0.741,1.294,1.829,1.294,3.263
	c0,1.021-0.382,1.976-1.147,2.862s-1.818,1.33-3.153,1.33c-2.091,0-3.586-0.686-4.485-2.057c-0.899-1.37-1.349-3.172-1.349-5.404
	c0-1.576,0.34-3.014,1.021-4.311c0.681-1.298,1.507-2.457,2.479-3.477c0.996-1.043,2.053-1.928,3.171-2.656
	c1.118-0.728,2.054-1.322,2.809-1.783l1.312,2.18c-1.142,0.654-2.066,1.219-2.771,1.69c-0.705,0.474-1.422,1.097-2.151,1.871
	c-0.704,0.751-1.233,1.521-1.586,2.309c-0.352,0.787-0.602,1.812-0.747,3.071H37.292z"/>
</svg>
