<?xml version="1.0" encoding="utf-8"?>
<!-- Generator: Adobe Illustrator 16.2.1, SVG Export Plug-In . SVG Version: 6.00 Build 0)  -->
<!DOCTYPE svg PUBLIC "-//W3C//DTD SVG 1.1//EN" "http://www.w3.org/Graphics/SVG/1.1/DTD/svg11.dtd">
<svg version="1.1" id="Layer_1" xmlns="http://www.w3.org/2000/svg" xmlns:xlink="http://www.w3.org/1999/xlink" x="0px" y="0px"
	 width="17px" height="17px" viewBox="0 0 17 17" enable-background="new 0 0 17 17" xml:space="preserve">
<path d="M7.924,5.985C6.696,3.802,5.383,2.023,5.286,1.893c-1.98,0.937-3.458,2.761-3.919,4.959
	C1.553,6.856,4.513,6.891,7.924,5.985z M8.808,8.371c0.093-0.03,0.187-0.058,0.28-0.084C8.91,7.883,8.715,7.479,8.511,7.079
	C4.855,8.174,1.344,8.095,1.22,8.091c-0.002,0.075-0.005,0.15-0.005,0.226c0,1.826,0.69,3.49,1.822,4.749
	c-0.001-0.002-0.004-0.007-0.004-0.007S4.976,9.611,8.808,8.371z M3.951,13.916l0.001-0.004C3.9,13.871,3.844,13.834,3.792,13.79
	C3.886,13.866,3.951,13.916,3.951,13.916z M6.615,1.421C6.608,1.423,6.603,1.424,6.596,1.425C6.607,1.423,6.615,1.422,6.615,1.421
	L6.615,1.421z M13.007,2.986c-1.25-1.102-2.892-1.772-4.69-1.772c-0.578,0-1.137,0.07-1.673,0.2c0.108,0.143,1.44,1.914,2.655,4.143
	C11.976,4.554,12.988,3.016,13.007,2.986z M8.316,16.633C3.724,16.633,0,12.909,0,8.316S3.724,0,8.316,0s8.316,3.724,8.316,8.316
	S12.909,16.633,8.316,16.633z M9.524,9.479c-4.168,1.452-5.544,4.375-5.572,4.434c1.205,0.942,2.717,1.508,4.364,1.508
	c0.983,0,1.921-0.202,2.772-0.563c-0.105-0.622-0.518-2.798-1.517-5.393C9.556,9.469,9.541,9.474,9.524,9.479z M9.844,6.616
	c0.167,0.338,0.325,0.683,0.473,1.03c0.053,0.122,0.104,0.245,0.153,0.366c2.453-0.308,4.869,0.215,4.947,0.233
	c-0.017-1.686-0.619-3.23-1.615-4.44C13.787,3.827,12.648,5.471,9.844,6.616z M10.902,9.135c0.933,2.562,1.312,4.648,1.383,5.072
	c1.594-1.077,2.729-2.783,3.045-4.764C15.188,9.398,13.199,8.767,10.902,9.135z"/>
</svg>
