<?xml version="1.0" encoding="utf-8"?>
<!-- Generator: Adobe Illustrator 16.2.1, SVG Export Plug-In . SVG Version: 6.00 Build 0)  -->
<!DOCTYPE svg PUBLIC "-//W3C//DTD SVG 1.1//EN" "http://www.w3.org/Graphics/SVG/1.1/DTD/svg11.dtd">
<svg version="1.1" id="Layer_1" xmlns="http://www.w3.org/2000/svg" xmlns:xlink="http://www.w3.org/1999/xlink" x="0px" y="0px"
	 width="17px" height="17px" viewBox="0 0 17 17" enable-background="new 0 0 17 17" xml:space="preserve">
<g>
	<path d="M3.85,1.817c0,1.004-0.741,1.817-1.961,1.817C0.741,3.635,0,2.822,0,1.817C0,0.789,0.765,0,1.937,0
		C3.108,0,3.826,0.789,3.85,1.817z M0.096,16.762V5.069H3.73v11.692H0.096z"/>
	<path d="M5.905,8.8c0-1.459-0.047-2.678-0.095-3.73h3.156l0.168,1.626h0.071c0.478-0.766,1.65-1.889,3.61-1.889
		C15.206,4.806,17,6.408,17,9.852v6.91h-3.635v-6.48c0-1.506-0.525-2.534-1.841-2.534c-1.005,0-1.602,0.693-1.864,1.363
		C9.563,9.35,9.54,9.685,9.54,10.019v6.743H5.905V8.8z"/>
</g>
</svg>
